<svg width="72" height="59" viewBox="0 0 72 59" fill="none" xmlns="http://www.w3.org/2000/svg">
<path d="M21.0393 20.8178L21.5022 20.2018L23.4475 21.6632L25.0052 19.5899L23.0599 18.1284L23.5228 17.512L27.9733 20.8555L27.5104 21.4716L25.5647 20.0101L24.0074 22.0834L25.9527 23.5449L25.4898 24.1614L21.0393 20.8178Z" fill="white"/>
<path d="M30.4635 16.5907L28.2977 15.0623L27.8649 14.6392L28.1277 15.1841L28.879 17.7291L30.4635 16.5907ZM27.1526 14.3085L27.7783 13.8586L32.6703 17.1984L32.0049 17.6759L31.067 17.0185L29.092 18.4376L29.423 19.5317L28.758 20.0096L27.1526 14.3085Z" fill="white"/>
<path d="M34.9456 10.3406L35.7533 10.208L38.2895 14.466L39.3346 9.6212L40.1427 9.48853L41.0425 14.9816L40.2825 15.1063L39.6731 11.3869L38.8399 15.3423L38.048 15.4725L35.9964 11.9896L36.6058 15.7089L35.8454 15.8332L34.9456 10.3406Z" fill="white"/>
<path d="M46.3237 14.869C46.6593 14.751 46.9397 14.5484 47.1645 14.2617C47.39 13.975 47.5449 13.6235 47.6298 13.2083C47.7148 12.7927 47.7098 12.4085 47.6148 12.057C47.5202 11.7046 47.3415 11.4087 47.0791 11.168C46.8171 10.9282 46.4894 10.7679 46.096 10.6876C45.7026 10.6072 45.338 10.6261 45.0024 10.7445C44.6667 10.8625 44.3867 11.0651 44.1616 11.3522C43.9364 11.6389 43.7816 11.9896 43.6966 12.4056C43.6117 12.8212 43.6167 13.2045 43.7113 13.5569C43.8063 13.9089 43.9845 14.2052 44.247 14.4455C44.5098 14.6857 44.8375 14.846 45.2309 14.9259C45.6243 15.0063 45.9884 14.9874 46.3237 14.869ZM43.7749 14.974C43.4057 14.6526 43.1446 14.2542 42.9906 13.7788C42.8357 13.3042 42.8144 12.7936 42.9257 12.2482C43.037 11.7029 43.2567 11.2417 43.5849 10.8646C43.913 10.4884 44.3093 10.2243 44.7751 10.0732C45.2401 9.92211 45.7273 9.89825 46.2358 10.002C46.7443 10.1058 47.1829 10.3184 47.552 10.6399C47.9199 10.9613 48.1819 11.3597 48.3367 11.8347C48.4903 12.3102 48.5121 12.8203 48.4008 13.3657C48.2894 13.911 48.0697 14.3722 47.7416 14.7489C47.4131 15.1255 47.0167 15.3892 46.5517 15.5403C46.0859 15.6918 45.5996 15.7157 45.0907 15.6114C44.5818 15.5077 44.1432 15.295 43.7749 14.974Z" fill="white"/>
<path d="M52.072 15.4412C52.8149 15.8789 53.3757 15.7751 53.7549 15.131C54.1345 14.4874 53.9533 13.9466 53.2108 13.5093L52.2009 12.9141L51.0625 14.8464L52.072 15.4412ZM51.8921 11.9202L53.5523 12.8982C54.0964 13.2184 54.4479 13.6152 54.6078 14.0877C54.7673 14.5598 54.7045 15.0381 54.4195 15.5223C54.1341 16.0066 53.7461 16.2933 53.2556 16.3828C52.7651 16.4724 52.2474 16.3565 51.7037 16.0363L50.7072 15.4491L49.7304 17.1073L49.0666 16.7164L51.8921 11.9202Z" fill="white"/>
<path d="M57.6229 15.8381L59.9415 18.276L59.4347 18.7581L57.6472 16.8794L56.3912 18.0739L58.0293 19.7956L57.5225 20.2782L55.8844 18.556L54.628 19.7509L56.4762 21.6936L55.9698 22.1762L53.5901 19.6747L57.6229 15.8381Z" fill="white"/>
<path d="M63.5107 24.1287L58.5756 26.7034L58.219 26.0199L60.4049 24.8799C60.2266 24.7795 60.0517 24.6384 59.8788 24.4568C59.7064 24.2751 59.5607 24.0701 59.4419 23.8424C59.2021 23.382 59.1142 22.9706 59.1786 22.6078C59.2435 22.2449 59.4691 21.9632 59.8541 21.7619L61.758 20.7688L62.1145 21.4522L60.3233 22.3864C60.0885 22.509 59.9558 22.6705 59.9257 22.8706C59.8956 23.0702 59.9529 23.31 60.0994 23.59C60.3149 24.0031 60.633 24.3199 61.0532 24.5413L63.1541 23.4452L63.5107 24.1287Z" fill="white"/>
<path d="M64.5435 27.1077L64.6921 27.8635L62.3672 28.3214L65.1068 29.9666L65.2822 30.8567L62.2479 29.0324L59.8423 32.0432L59.6498 31.0664L61.7432 28.4444L59.2308 28.9395L59.0823 28.1833L64.5435 27.1077Z" fill="white"/>
<path d="M60.4798 36.4652C60.6322 36.7862 60.8628 37.0444 61.1717 37.2386C61.4797 37.4324 61.8455 37.5504 62.2673 37.5918C62.6896 37.6329 63.0709 37.5881 63.4107 37.4571C63.7514 37.3261 64.0272 37.1181 64.239 36.8322C64.4507 36.5464 64.5759 36.2032 64.6152 35.8039C64.6541 35.4047 64.5972 35.0439 64.4449 34.7225C64.293 34.4015 64.0624 34.1437 63.7535 33.9491C63.445 33.7553 63.0797 33.6377 62.6574 33.5963C62.2355 33.5548 61.8543 33.6 61.514 33.7306C61.1733 33.8616 60.8979 34.0696 60.6862 34.3554C60.4744 34.6413 60.3493 34.9845 60.3095 35.3837C60.2706 35.7834 60.3275 36.1438 60.4798 36.4652ZM60.1111 33.9407C60.3924 33.5406 60.7615 33.2388 61.2177 33.0363C61.6747 32.8333 62.1799 32.7592 62.7336 32.8132C63.2881 32.8672 63.7694 33.0375 64.1779 33.3251C64.5868 33.6122 64.8906 33.9796 65.089 34.4266C65.2878 34.8736 65.3623 35.3553 65.3116 35.8717C65.2614 36.389 65.0953 36.8473 64.8136 37.2474C64.5324 37.6471 64.1636 37.9484 63.7066 38.1514C63.25 38.3544 62.7449 38.4289 62.1912 38.3749C61.6366 38.3205 61.1553 38.1497 60.7469 37.8626C60.338 37.5751 60.0341 37.2081 59.8362 36.7615C59.6369 36.3145 59.5629 35.8324 59.6131 35.3159C59.6637 34.7991 59.8295 34.3404 60.1111 33.9407Z" fill="white"/>
<path d="M63.9903 41.4899L63.6634 42.3621L60.0805 40.8646L60.3065 40.2637L63.9903 41.4899ZM58.9178 39.6526C59.0647 39.5848 59.2104 39.5777 59.3544 39.6321C59.4983 39.6857 59.6034 39.787 59.6695 39.9347C59.736 40.0824 59.7419 40.2289 59.6875 40.3746C59.6331 40.5194 59.5322 40.6257 59.3849 40.6939C59.2376 40.7617 59.0924 40.7684 58.9484 40.7144C58.8044 40.6604 58.6994 40.56 58.6328 40.4118C58.5667 40.2641 58.5609 40.1176 58.6148 39.9719C58.6697 39.8267 58.7705 39.7204 58.9178 39.6526Z" fill="white"/>
<path d="M45.4971 34.8274C42.7056 34.7566 40.2937 34.4042 38.0396 33.7463C34.6584 32.7595 31.9384 31.0465 29.9475 28.6517L29.4938 28.9509C27.919 29.9847 26.2901 31.0481 24.1615 30.8761C24.015 30.864 23.8686 30.8464 23.7233 30.8242C21.8287 30.5313 20.3074 29.1949 18.9644 27.9381C17.5431 29.4561 15.9217 30.7707 13.8011 30.6409C12.194 30.5459 10.6798 29.6164 9.74985 28.1549L9.22043 27.3237C7.81797 28.7521 6.33642 29.7348 4.70462 30.3203L4.42212 29.5323C6.06857 28.9417 7.55891 27.9051 8.97852 26.3637L9.34724 25.9631L10.4555 27.705C11.2419 28.9409 12.5108 29.726 13.8505 29.8051C15.8556 29.9273 17.3744 28.4521 18.6316 27.0626L18.9183 26.7462L19.2682 27.0756C20.5886 28.3169 22.0852 29.7239 23.8514 29.9968C23.9774 30.0165 24.1038 30.0311 24.2306 30.0416C26.0725 30.1964 27.5113 29.2514 29.0335 28.252L30.125 27.5317L30.3627 27.8343C32.2628 30.2463 35.1078 32.2091 38.4572 33.1868C41.2509 34.002 44.0386 34.5059 47.9141 34.8219C47.0762 34.8453 46.2718 34.847 45.4971 34.8274Z" fill="white"/>
<path d="M3.74633 37.565L3.62915 36.7364C6.46963 36.335 7.84697 34.7568 9.06235 33.3644L9.49342 32.8713L9.99439 33.3886C10.5313 33.9457 11.0386 34.4722 11.6517 34.8664C12.7148 35.5511 13.9385 35.8449 14.9254 35.652C15.7151 35.4984 16.5333 35.0719 17.4264 34.3491C17.7499 34.0871 18.017 33.8431 18.2417 33.6029L18.5414 33.2836L18.8469 33.597C19.3198 34.0817 20.2472 34.799 21.0039 35.2657C21.8753 35.8026 23.1212 36.1454 24.129 36.1316C25.5172 36.1169 26.6384 35.4774 27.8253 34.8003C28.1099 34.6379 28.3975 34.4738 28.6925 34.3161L28.9457 34.18L29.1633 34.368C30.6549 35.6536 32.3181 36.2952 33.9064 36.5752C35.9241 36.931 39.4689 37.0147 39.5091 37.0159C39.5091 37.0159 35.2406 37.3114 33.3632 37.0657C31.7289 36.8519 30.3871 36.4564 28.8394 35.1891C28.6373 35.3008 28.4381 35.4147 28.2401 35.5277C27.0126 36.2274 25.7436 36.9515 24.1382 36.9686C22.935 36.9741 21.5765 36.6016 20.5645 35.978C19.8856 35.5595 19.1009 34.9698 18.5548 34.4751C18.3744 34.6459 18.1756 34.8195 17.9529 34.9999C16.9506 35.811 16.0131 36.2931 15.0857 36.4735C13.8736 36.7096 12.4569 36.3806 11.1985 35.5704C10.5598 35.1594 10.0308 34.6304 9.52481 34.1072C8.30525 35.4984 6.75506 37.1402 3.74633 37.565Z" fill="white"/>
<path d="M4.91751 43.751L4.79321 42.9232C8.78169 42.3255 10.0766 39.8178 10.0858 39.7973L10.2097 39.7562L10.4294 40.1693C12.193 42.0171 15.3662 42.4109 17.3575 41.0294C17.8104 40.7151 18.6671 39.9316 18.6759 39.9236L18.8994 39.719L19.1639 39.8676C19.7741 40.2108 20.4596 40.5908 20.5504 40.633C22.5731 41.4784 24.9946 41.3688 27.0219 40.3367L27.2781 40.2066L27.4915 40.3987C28.6705 41.6048 30.4274 41.8823 35.0236 42.2807C33.6659 42.3925 28.9321 42.5913 27.1521 41.2047C24.9612 42.2322 22.3906 42.3096 20.2214 41.4027C20.1214 41.3608 19.5049 41.0185 19.0157 40.7444C18.7156 41.0118 18.1841 41.4743 17.8346 41.717C15.6249 43.2505 12.3152 42.9571 10.2097 41.116C9.65053 41.8672 8.20036 43.2588 4.91751 43.751Z" fill="white"/>
</svg>
